<?xml version="1.0" encoding="UTF-8"?><svg id="b" xmlns="http://www.w3.org/2000/svg" viewBox="0 0 99.9871 97.374"><g id="c"><g id="d"><path d="m72.5697,78.9458c-17.0349,12.5067-40.984,8.8358-53.4908-8.1991C6.5723,53.7118,10.2432,29.7627,27.2781,17.2559c17.0349-12.5067,40.984-8.8358,53.4907,8.1992,12.507,17.0359,8.8358,40.984-8.1991,53.4907Z" style="fill:#fff;"/><path d="m50.3384,16.8232c-17.2964,0-31.3173,14.0219-31.3173,31.3174s14.0219,31.3174,31.3173,31.3174,31.3174-14.0219,31.3174-31.3174-14.0219-31.3174-31.3174-31.3174Zm-2.3422,55.053h-5.0721v-14.9208h3.6672c.4745,0,.9429-.0263,1.4049-.0745v14.9953Zm-1.4049-16.3041h-8.6428c-6.6526,0-12.0641-5.4116-12.0641-12.0633s5.4116-12.0641,12.0641-12.0641h8.6428c.7173,0,1.4181.0688,2.1013.1894-2.1312,1.1345-3.9126,2.83-5.1693,4.8827h-5.5749c-3.8554,0-6.9921,3.1367-6.9921,6.9921s3.1368,6.9912,6.9921,6.9912h8.6428c3.8554,0,6.9912-3.1358,6.9912-6.9912,0-1.7735-.6638-3.3948-1.7557-4.6288.9009-.6173,1.9893-.98,3.1615-.98h2.2812c.8841,1.6766,1.3851,3.5851,1.3851,5.6088,0,6.6517-5.4115,12.0633-12.0632,12.0633Zm16.1176,0h-10.2151c2.3016-1.131,4.2296-2.896,5.5617-5.0721h4.6534c3.8554,0,6.9921-3.1358,6.9921-6.9912s-3.1368-6.9921-6.9921-6.9921h-7.7206c-3.8554,0-6.9921,3.1367-6.9921,6.9921v5.4227c-.4499.1167-.919.1853-1.4049.1853h-3.6672v-5.6079c0-6.6526,5.4116-12.0641,12.0641-12.0641h7.7206c6.6526,0,12.0641,5.4116,12.0641,12.0641s-5.4116,12.0633-12.0641,12.0633Zm33.9447-5.6084c-2.2867-8.0415,6.3-16.1541.996-23.7889l-.0009-.0009c-2.6089-5.093-7.6547-7.04-12.6191-8.67-7.3155-2.164-9.9042-11.6417-15.4376-15.7927-7.5322-4.7175-14.5101,1.6865-21.6897,2.8889-7.0523,1.7869-14.3794-3.986-21.092-1.0167-5.6606,2.3472-7.1014,7.7754-9.2995,12.4794-2.6355,5.8527-9.8831,8.9132-14.6225,12.619-5.2085,5.6324-2.3141,13.6797.4448,19.491,1.5575,5.7138-2.3024,11.3353-2.4718,17.2625.3455,4.2677,2.9308,9.2263,6.883,11.2229,9.3333,2.0388,15.8165,9.637,20.7617,17.9122,4.9464,4.5819,12.218,2.7852,17.6399.0096,6.8719-3.1614,14.3216-1.0205,21.4705.8141,9.31.7751,12.6181-9.1891,15.9755-15.4963,3.4942-5.5043,11.5559-7.3534,14.7267-12.1685,3.6055-5.6611.5745-12.2527-1.665-17.7658Zm-25.6329,26.8723c-15.8697,11.6513-38.1807,8.2315-49.8321-7.6383-11.6512-15.8697-8.2314-38.1807,7.6384-49.8321,15.8697-11.6512,38.1807-8.2314,49.832,7.6384,11.6515,15.8706,8.2315,38.1807-7.6383,49.832Z" style="fill:#d62435;"/></g></g></svg>